Coordinates
version=1
nRows=16
nColumns=22
inDegrees=yes

Units are S.I. units (second, meters, Newtons, ...)
If the header above contains a line with 'inDegrees', this indicates whether rotational values are in degrees (yes) or radians (no).

endheader
time	pelvis_tilt	pelvis_list	pelvis_rotation	pelvis_tx	pelvis_ty	pelvis_tz	hip_flexion_r	hip_adduction_r	hip_rotation_r	knee_angle_r	ankle_angle_r	subtalar_angle_r	hip_flexion_l	hip_adduction_l	hip_rotation_l	knee_angle_l	ankle_angle_l	subtalar_angle_l	lumbar_extension	lumbar_bending	lumbar_rotation
      0.01000000	     -5.40105230	      3.20015586	    -41.85575702	     -1.44586450	      0.88702489	     -0.32942318	      9.87621564	     -2.25437476	      2.04803699	    -13.40786175	     14.47299214	      1.39987296	      3.59645389	     -4.68977183	    -12.08997346	     -9.40977547	     14.39271585	      5.57771068	      2.50846860	     -1.31255858	     15.37621837
      0.02000000	     -5.35604520	      3.20256416	    -41.94640505	     -1.44586169	      0.88705531	     -0.32967110	      9.89520135	     -2.29797652	      2.10131808	    -13.46406147	     14.48152706	      1.41005935	      3.59728326	     -4.64671484	    -12.15839050	     -9.48793184	     14.41291578	      5.58261419	      2.48039145	     -1.36142430	     15.41557094
      0.03000000	     -5.33001842	      3.20419918	    -42.05289828	     -1.44586278	      0.88705529	     -0.32994862	      9.92615705	     -2.32659919	      2.19550117	    -13.50714696	     14.49033500	      1.43785706	      3.61110613	     -4.61666253	    -12.24222936	     -9.56742137	     14.45559108	      5.56150415	      2.46956492	     -1.39293328	     15.46920039
      0.04000000	     -5.30461710	      3.21097590	    -42.15650928	     -1.44584282	      0.88704099	     -0.33025118	      9.96211900	     -2.36141818	      2.29169152	    -13.55237490	     14.50202494	      1.47398900	      3.62198760	     -4.57902181	    -12.32400854	     -9.63271586	     14.49600614	      5.52985681	      2.46522075	     -1.42779436	     15.51312059
      0.05000000	     -5.28038908	      3.22302230	    -42.25433410	     -1.44580002	      0.88701551	     -0.33056956	     10.00261908	     -2.40190195	      2.39372142	    -13.60052755	     14.52020955	      1.51747622	      3.62245064	     -4.53326282	    -12.39897650	     -9.66861965	     14.52786973	      5.49495246	      2.46707413	     -1.46230579	     15.54096969
      0.06000000	     -5.25851005	      3.23843202	    -42.33565420	     -1.44572376	      0.88697902	     -0.33090712	     10.04208775	     -2.44749534	      2.48592070	    -13.64408854	     14.54011774	      1.55981718	      3.61038648	     -4.48048715	    -12.46414543	     -9.66807296	     14.55240128	      5.46688876	      2.47419314	     -1.49247872	     15.54336781
      0.07000000	     -5.23942873	      3.26174311	    -42.41056229	     -1.44564693	      0.88693213	     -0.33121696	     10.08648821	     -2.49636008	      2.56811349	    -13.68589812	     14.56795960	      1.60825681	      3.58601921	     -4.42202332	    -12.52980161	     -9.62986387	     14.56190037	      5.44321329	      2.49012804	     -1.52888528	     15.53487367
      0.08000000	     -5.24070511	      3.26232277	    -42.44163577	     -1.44553075	      0.88689054	     -0.33154384	     10.10950749	     -2.51804636	      2.59812686	    -13.70110555	     14.56996482	      1.61845278	      3.56427356	     -4.39588887	    -12.56586288	     -9.58690403	     14.57613093	      5.43998516	      2.50543046	     -1.52774211	     15.46472216
      0.09000000	     -5.21143955	      3.31109225	    -42.49882375	     -1.44543016	      0.88683237	     -0.33184341	     10.16411134	     -2.59626618	      2.67033906	    -13.75146993	     14.61993696	      1.67103018	      3.51377258	     -4.30096677	    -12.61867462	     -9.47516981	     14.55532557	      5.43592424	      2.53135484	     -1.58670119	     15.45074922
      0.10000000	     -5.21676594	      3.31634396	    -42.50955667	     -1.44531114	      0.88678742	     -0.33214436	     10.18837479	     -2.61753537	      2.68947504	    -13.76609624	     14.62339030	      1.68067191	      3.48653515	     -4.27388569	    -12.66614870	     -9.40629573	     14.56475931	      5.43549931	      2.54877636	     -1.58237392	     15.35559106
      0.11000000	     -5.18844678	      3.36548829	    -42.51953381	     -1.44516231	      0.88674016	     -0.33243190	     10.23083855	     -2.70150242	      2.69431918	    -13.80971604	     14.67962963	      1.72528519	      3.41882145	     -4.17444654	    -12.66976334	     -9.24784141	     14.50965993	      5.44878488	      2.57100399	     -1.64051467	     15.28278576
      0.12000000	     -5.19310363	      3.37390108	    -42.51350213	     -1.44504731	      0.88669943	     -0.33269921	     10.25359957	     -2.72402499	      2.70753030	    -13.82577401	     14.68467709	      1.73450684	      3.38754615	     -4.14594819	    -12.71754810	     -9.16471678	     14.51653834	      5.44998639	      2.58104101	     -1.63874527	     15.16636495
      0.13000000	     -5.15400838	      3.41801917	    -42.48621191	     -1.44486571	      0.88667579	     -0.33297462	     10.27534718	     -2.81678139	      2.65872226	    -13.86739189	     14.75056411	      1.77649288	      3.30191542	     -4.04010961	    -12.67026775	     -8.98542601	     14.43651817	      5.46910053	      2.57937103	     -1.70179364	     15.04044482
      0.14000000	     -5.15793523	      3.42708234	    -42.47197010	     -1.44476058	      0.88663557	     -0.33320168	     10.29723501	     -2.83797741	      2.67309220	    -13.88647763	     14.75466294	      1.78544491	      3.26910550	     -4.01293219	    -12.71367996	     -8.89847560	     14.44256958	      5.46983328	      2.57820227	     -1.70041554	     14.91047181
      0.15000000	     -5.11489366	      3.46519038	    -42.42963160	     -1.44459437	      0.88662469	     -0.33345749	     10.31167307	     -2.92829860	      2.61064873	    -13.93270751	     14.82211341	      1.82501756	      3.18414452	     -3.91167292	    -12.63849784	     -8.72818828	     14.35692258	      5.48549492	      2.55360122	     -1.76081176	     14.76143633
      0.16000000	     -5.09211998	      3.48631016	    -42.39831504	     -1.44449263	      0.88660587	     -0.33366945	     10.32803067	     -2.98152076	      2.59198066	    -13.97005928	     14.85563832	      1.86327816	      3.13120624	     -3.85218100	    -12.61789490	     -8.61595872	     14.31690511	      5.48660325	      2.52460859	     -1.79243606	     14.62234049
